<?xml version="1.0" encoding="UTF-8"?>
<svg id="Layer_2" data-name="Layer 2" xmlns="http://www.w3.org/2000/svg" viewBox="0 0 97.94 25.12">
  <g id="_Слой_1" data-name="Слой 1">
    <polygon points="2.47 19.14 2.47 4.84 0 4.84 0 19.14 2.47 19.14 2.47 19.14" fill="#fff" fill-rule="evenodd"/>
    <path d="m8.88,8.73c-2.89-.07-5.29,2.22-5.36,5.12,0,.06,0,.13,0,.19-.03,2.94,2.33,5.34,5.27,5.37.03,0,.06,0,.09,0,2.95,0,5.34-2.39,5.34-5.34,0-2.95-2.39-5.34-5.34-5.34,0,0,0,0,0,0Zm0,8.26c-1.61.02-2.93-1.28-2.95-2.89s1.28-2.93,2.89-2.95c1.61-.02,2.93,1.28,2.95,2.89.05,1.58-1.19,2.9-2.77,2.95-.04,0-.08,0-.12,0Z" fill="#fff" fill-rule="evenodd"/>
    <path d="m20.61,8.73c-2.93-.06-5.36,2.27-5.42,5.2,0,.06,0,.11,0,.17,0,2.96,2.4,5.36,5.36,5.36,2.96,0,5.36-2.4,5.36-5.36.01-.98-.28-1.94-.84-2.74l.79-.31v-2h-3.52c-.55-.23-1.14-.34-1.73-.32Zm0,8.26c-1.61.02-2.93-1.28-2.95-2.89-.02-1.61,1.28-2.93,2.89-2.95,1.61-.02,2.93,1.28,2.95,2.89,0,1.61-1.28,2.92-2.89,2.95Z" fill="#fff" fill-rule="evenodd"/>
    <path d="m23.5,19.81c.13,1.6-1.05,3-2.65,3.13-1.6.13-3-1.05-3.13-2.65-.01-.16-.01-.32,0-.48h-2.53c-.04,2.89,2.27,5.27,5.17,5.31.06,0,.13,0,.19,0,2.94.06,5.36-2.28,5.42-5.22,0-.03,0-.06,0-.09h-2.47Z" fill="#fff" fill-rule="evenodd"/>
    <polygon points="26.97 9.05 26.97 19.14 29.44 19.14 29.44 9.05 26.97 9.05 26.97 9.05" fill="#fff" fill-rule="evenodd"/>
    <path d="m28.28,7.89c.92.04,1.69-.66,1.74-1.58,0-.02,0-.03,0-.05-.05-.94-.8-1.69-1.74-1.73-.92.02-1.65.77-1.63,1.69,0,.01,0,.03,0,.04,0,.9.73,1.62,1.63,1.63Z" fill="#fff" fill-rule="evenodd"/>
    <polygon points="32.01 9.05 30.7 9.05 30.7 11.26 32.01 11.26 32.01 19.09 34.48 19.09 34.48 11.26 35.9 11.26 35.9 9.05 34.48 9.05 34.48 5.95 32.01 5.95 32.01 9.05 32.01 9.05" fill="#fff" fill-rule="evenodd"/>
    <path d="m41.48,8.73c-2.88-.05-5.26,2.24-5.31,5.13,0,.08,0,.16,0,.24-.12,2.76,2.03,5.09,4.79,5.21.17,0,.35,0,.52,0,1.71,0,3.36-.68,4.57-1.89l-1.73-1.74c-.71.8-1.72,1.28-2.79,1.32-1.29.06-2.43-.8-2.74-2.05h7.84v-.58c0-3.31-2.16-5.63-5.15-5.63Zm-2.76,4.31c.27-1.23,1.37-2.09,2.63-2.05,1.26-.07,2.36.81,2.58,2.05h-5.21Z" fill="#fff" fill-rule="evenodd"/>
    <path d="m52.78,8.81c-2.93,0-5.31,2.37-5.31,5.31,0,2.93,2.37,5.31,5.31,5.31h0c1.66-.02,3.22-.75,4.31-2l-1.74-1.74c-.64.78-1.57,1.26-2.57,1.32-1.53.01-2.78-1.22-2.79-2.75,0-.05,0-.1,0-.14-.09-1.51,1.06-2.81,2.57-2.9.07,0,.14,0,.22,0,1.01.03,1.96.51,2.57,1.32l1.74-1.73c-1.04-1.31-2.64-2.05-4.31-2Z" fill="#fff" fill-rule="evenodd"/>
    <path d="m86.79,0c-6.76-.19-12.4,5.13-12.59,11.9s5.13,12.4,11.9,12.59c.23,0,.47,0,.7,0v-5.09c-3.95,0-7.15-3.2-7.15-7.15s3.2-7.15,7.15-7.15V0Z" fill="#fff" fill-rule="evenodd"/>
    <polygon points="97.94 10.05 86.95 10.05 86.95 15.04 92.89 15.04 92.89 20.98 97.94 20.98 97.94 10.05 97.94 10.05" fill="#fff" fill-rule="evenodd"/>
    <path d="m67.72,13.2c.26-2.19-1.31-4.18-3.5-4.44-.17-.02-.33-.03-.5-.03-1.14-.04-2.23.43-3,1.27v-5.19h-2.58v14.3h2.47v-5.49c-.1-1.23.81-2.32,2.04-2.42.13-.01.25-.01.38,0,1.16-.07,2.16.82,2.23,1.98,0,.15,0,.29-.02.44v5.47h2.48v-5.89Z" fill="#fff" fill-rule="evenodd"/>
  </g>
</svg>