<?xml version="1.0" encoding="UTF-8"?>
<svg id="Layer_2" data-name="Layer 2" xmlns="http://www.w3.org/2000/svg" xmlns:xlink="http://www.w3.org/1999/xlink" viewBox="0 0 181.01 41.23">
  <defs>
    <linearGradient id="linear-gradient" x1="36.72" y1="5.16" x2="5.36" y2="36.52" gradientUnits="userSpaceOnUse">
      <stop offset="0" stop-color="#f9bf02"/>
      <stop offset=".28" stop-color="#f98d2a"/>
      <stop offset="1" stop-color="#da4237"/>
    </linearGradient>
  </defs>
  <g id="Layer_1-2" data-name="Layer 1">
    <path d="m12.45,37.68c-1.62.32-3.25.22-4.85-.12-.18-.04-.38-.02-.48-.24,5.94-.83,8.22-3.85,8.34-6.81-1.43,1.76-3.13,2.64-5.31,1.76-1.27-.51-1.9-1.48-1.76-2.92-2.16.51-3.43,3.06-3.23,6.73-1.51-2.25-2.36-4.5-1.9-7.1.36-2.07,2.58-4.64,4.28-5.25-.81,1.81-.24,3.06,1.19,3.53,1.13.37,2.14-.02,2.75-1.05.06-.34.16-.69.16-1.03-.06-2.03,1.35-3.31,3.29-3.49.4-.04.77,0,1.29,0-.4.34-.73.61-1.03.89-.52.53-.93,1.14-.65,1.93.28.81.85,1.36,1.66,1.54,1.9.47,2.97-.14,3.9-2.25.16-.95.16-1.93.52-2.84.81-2.03,2.32-3.12,4.42-3.41,0,0-.22.24-.36.32-1.53,1.18-2.4,2.66-2.18,4.71.14,1.34.26,2.68-.06,4.02-.24,2.27-1.03,4.32-2.38,6.12-1.76,2.9-4.46,4.32-7.61,4.97Zm13.99-19.29c-.75,2.51-.46,5.13-.65,7.69-.24,2.47-.93,4.77-2.42,6.77-1.31,1.58-2.81,2.96-4.46,4.2-2.36,1.48-4.99,2.21-7.63,2.98,3.41.99,6.78,1.7,10.28.75,1.66-.45,3.09-1.26,4.26-2.8-1.68.43-3.23.81-4.8.22.02-.18.14-.2.28-.22,1.9-.45,3.55-1.34,4.93-2.74,1.49-1.32,2.28-3.02,2.87-4.91.22-.67.28-.85.38-1.58.08-.63.06-.91.08-1.14.16-2.27-.16-4.5-.61-6.71-.55-2.7-.06-5.13,2.04-7.06.04-.04.06-.1.1-.22-2.56.65-3.94,2.37-4.66,4.77Zm2.66,11.97c.14-.45.28-.85.38-1.58.08-.63.06-.91.08-1.14M9.41,15.39c3.71-.3,5.96-3.1,5.57-7-.1.16-.16.28-.22.39-1.29,2.09-2.97,3.61-5.45,4.04-.93.16-1.84.43-2.71.83-1.27.63-2.16,1.58-2.5,3.18.73-.59,1.49-.87,2.26-1.05,1.01-.24,2.04-.3,3.05-.39Zm-3.86,5.98c2.12-.43,4.24-.71,6.4-.89,1.15-.1,2.3-.14,3.41-.53,1.94-.39,3.69-1.26,5.37-2.29.24-.12.48-.22.69-.37,3.15-2.11,4.89-3.95,6.78-7.34.26-.47,1.17-2.09,1.13-2.68-.2.39-.73,1.2-1.49,2.27-.85,1.18-1.76,2.29-3.07,2.96-1.17.63-2.73.49-3.33-.24-.63-.77-.5-1.95.38-3.2.87-.79,1.84-1.4,2.91-1.89,1.94-.89,3.67-2.11,5.07-3.75.85-.99,1.49-2.13,1.76-3.43-.54.77-1.03,1.56-1.68,2.23-2.22,2.31-4.99,3.63-7.95,4.62-.67.22-1.35.45-1.9.93-1.29.73-2.18,1.85-2.75,3.2-.44,1.03-.83,2.09-1.25,3.12-.63,1.28-.87,1.78-3.09,2.35-.44.12-.93.22-1.45.37-1.25.24-2.48.45-3.71.71-1.59.34-3.07.91-4.28,2.07C1.33,21.27.02,23.4,0,26.28c0,1.6.34,3.14.81,4.64.24.71.63,1.68.63,1.68,0,0-.34-1.26-.46-1.66,0,0-.08-.37-.1-.55-.4-2.39-.14-4.64,1.31-6.65.85-1.2,2.08-1.85,3.35-2.37Z" fill="url(#linear-gradient)"/>
    <path d="m46.68,8.35l-1.98,9.67h8.92l1.94-9.67h5.09l-5.05,23.73h-4.85l1.94-9.73h-8.88l-2.08,9.73h-4.91l4.76-23.73h5.11Zm44.23,0h-5.11l-4.76,23.73h4.91l4.95-23.73Zm8.14,0h-5.11l-4.76,23.73h4.91l4.95-23.73Zm-20.88,19.37s-9.89.02-11.06,0c-1.17-.02-1.39-.16-1.39-.51s.79-4.95,1.09-6.39c.3-1.44,1.17-2.25,2.34-2.25s4.48-.04,5.27-.04,1.27.59,1.27.91-.16,1.66-.16,1.66h-6.78l-.91,4.38h11.67s1.55-7.3,1.55-8.48-.44-1.7-.75-2.01c-.32-.3-1.35-.79-2.4-.79h-10.3c-1.68,0-3.13.97-3.67,1.4s-1.35,1.44-1.59,2.51c-.24,1.07-1.31,6.73-1.66,8.5-.36,1.74-.79,3.29,0,4.44.79,1.14,2.48,1.01,2.48,1.01h14.01l.99-4.36Zm99.94,0s-9.89.02-11.06,0c-1.17-.02-1.39-.16-1.39-.51s.79-4.95,1.09-6.39c.3-1.44,1.17-2.25,2.34-2.25s4.48-.04,5.27-.04,1.27.59,1.27.91-.16,1.66-.16,1.66h-6.78l-.91,4.38h11.67s1.55-7.3,1.55-8.48-.44-1.7-.75-2.01c-.32-.3-1.35-.79-2.4-.79h-10.3c-1.68,0-3.13.97-3.67,1.4s-1.35,1.44-1.59,2.51c-.24,1.07-1.31,6.73-1.66,8.5-.36,1.76-.79,3.29,0,4.44.79,1.16,2.48,1.01,2.48,1.01h14.01l.99-4.36Zm-58.63-9.13s9.89-.02,11.06,0c1.17.02,1.39.16,1.39.51s-.79,4.95-1.09,6.39c-.3,1.44-1.17,2.25-2.34,2.25s-4.48.04-5.27.04-1.33-.3-1.33-1.01c0-.87.65-1.48,1.47-1.48,1.86,0,5.47-.02,5.47-.02l.97-4.48h-6.96c-2.67,0-4.38.81-4.99,2.43-.87,2.29-1.25,5.25-1.25,6.04,0,1.18.44,1.7.75,2.01.32.3,1.35.79,2.4.79h14.76c.24-1.05,2.1-10.65,2.46-12.39.36-1.74.79-3.29,0-4.44-.79-1.16-2.48-1.01-2.48-1.01h-14.01l-1.01,4.38Zm-5.45,9.13s-8.2.02-9.37,0c-1.17-.02-1.39-.16-1.39-.51s.79-4.95,1.09-6.39c.3-1.44,1.17-2.25,2.34-2.25s8.64-.04,9.43-.04l.71-4.28h-11.69c-1.68,0-3.13.97-3.67,1.4-.53.43-1.35,1.44-1.59,2.51-.24,1.07-1.31,6.73-1.66,8.5-.36,1.74-.79,3.29,0,4.44.79,1.14,2.48,1.01,2.48,1.01h12.32l.99-4.4Zm46.43-13.49h-15.71c-2.24,0-3.63,1.48-4.16,3.41-.53,1.93-.73,3.53-.73,3.53-.48,2.19,1.33,4.14,3.67,4.14h8.52c.79,0,1.19.71,1.19,1.22s-.53,1.28-2.32,1.28h-12.38l-.89,4.26h15.51c1.98,0,3.23-1.16,3.73-2.27s2.18-5.48.53-7.56c-.95-1.22-2.42-1.22-4.26-1.22h-6.97c-.85,0-1.29-.67-1.29-1.07s.59-1.42,2.38-1.42h12.25l.95-4.28Z" fill="#dce1e5"/>
  </g>
</svg>